<svg width="60" height="60" viewBox="0 0 60 60" fill="none" xmlns="http://www.w3.org/2000/svg">
<g id="sentiment_satisfied_24px">
<path id="icon/social/sentiment_satisfied_24px" fill-rule="evenodd" clip-rule="evenodd" d="M29.975 5C16.175 5 5 16.2 5 30C5 43.8 16.175 55 29.975 55C43.8 55 55 43.8 55 30C55 16.2 43.8 5 29.975 5ZM21.25 20C19.1789 20 17.5 21.6789 17.5 23.75C17.5 25.8211 19.1789 27.5 21.25 27.5C23.3211 27.5 25 25.8211 25 23.75C25 21.6789 23.3211 20 21.25 20ZM38.75 20C36.6789 20 35 21.6789 35 23.75C35 25.8211 36.6789 27.5 38.75 27.5C40.8211 27.5 42.5 25.8211 42.5 23.75C42.5 21.6789 40.8211 20 38.75 20ZM21.375 35C23.125 37.975 26.3 40 30 40C33.7 40 36.875 37.975 38.625 35H42.8C40.8 40.125 35.825 43.75 30 43.75C24.175 43.75 19.2 40.125 17.2 35H21.375ZM10 30C10 41.05 18.95 50 30 50C41.05 50 50 41.05 50 30C50 18.95 41.05 10 30 10C18.95 10 10 18.95 10 30Z" fill="#FF5C00"/>
</g>
</svg>
