<svg width="60" height="60" viewBox="0 0 60 60" fill="none" xmlns="http://www.w3.org/2000/svg">
<g id="fitness_center_24px">
<path id="icon/places/fitness_center_24px" d="M51.425 37.15L55 33.575L51.425 30L42.5 38.925L21.075 17.5L30 8.575L26.425 5L22.85 8.575L19.275 5L13.925 10.35L10.35 6.775L6.775 10.35L10.35 13.925L5 19.275L8.575 22.85L5 26.425L8.575 30L17.5 21.075L38.925 42.5L30 51.425L33.575 55L37.15 51.425L40.725 55L46.075 49.65L49.65 53.225L53.225 49.65L49.65 46.075L55 40.725L51.425 37.15Z" fill="#FF5C00"/>
</g>
</svg>
