<svg width="173" height="17" viewBox="0 0 173 17" fill="none" xmlns="http://www.w3.org/2000/svg">
<path d="M2.87 1.75V6.07H9.44V7.42H2.87V13H0.26V0.399999H11.6V1.75H2.87ZM17.0021 12.1C17.5901 12.1 18.1361 11.998 18.6401 11.794C19.1561 11.59 19.6601 11.302 20.1521 10.93L20.8721 12.01C20.6441 12.214 20.3741 12.4 20.0621 12.568C19.7621 12.736 19.4321 12.88 19.0721 13C18.7241 13.108 18.3581 13.192 17.9741 13.252C17.5901 13.324 17.2061 13.36 16.8221 13.36C15.9701 13.36 15.1901 13.246 14.4821 13.018C13.7861 12.802 13.1921 12.484 12.7001 12.064C12.2081 11.632 11.8241 11.104 11.5481 10.48C11.2841 9.856 11.1521 9.136 11.1521 8.32C11.1521 7.516 11.2781 6.802 11.5301 6.178C11.7941 5.542 12.1541 5.014 12.6101 4.594C13.0781 4.162 13.6301 3.838 14.2661 3.622C14.9021 3.394 15.6041 3.28 16.3721 3.28C17.0921 3.28 17.7701 3.388 18.4061 3.604C19.0421 3.82 19.5941 4.138 20.0621 4.558C20.5301 4.966 20.9021 5.464 21.1781 6.052C21.4541 6.64 21.5921 7.306 21.5921 8.05V9.31H13.9061C14.0501 10.306 14.3921 11.02 14.9321 11.452C15.4841 11.884 16.1741 12.1 17.0021 12.1ZM16.3721 4.45C16.0241 4.45 15.7001 4.516 15.4001 4.648C15.1001 4.78 14.8361 4.99 14.6081 5.278C14.3921 5.566 14.2121 5.938 14.0681 6.394C13.9361 6.85 13.8641 7.402 13.8521 8.05H18.8921C18.8921 7.426 18.8201 6.886 18.6761 6.43C18.5321 5.974 18.3401 5.602 18.1001 5.314C17.8721 5.014 17.6021 4.798 17.2901 4.666C16.9901 4.522 16.6841 4.45 16.3721 4.45ZM29.2407 12.1C29.8287 12.1 30.3747 11.998 30.8787 11.794C31.3947 11.59 31.8987 11.302 32.3907 10.93L33.1107 12.01C32.8827 12.214 32.6127 12.4 32.3007 12.568C32.0007 12.736 31.6707 12.88 31.3107 13C30.9627 13.108 30.5967 13.192 30.2127 13.252C29.8287 13.324 29.4447 13.36 29.0607 13.36C28.2087 13.36 27.4287 13.246 26.7207 13.018C26.0247 12.802 25.4307 12.484 24.9387 12.064C24.4467 11.632 24.0627 11.104 23.7867 10.48C23.5227 9.856 23.3907 9.136 23.3907 8.32C23.3907 7.516 23.5167 6.802 23.7687 6.178C24.0327 5.542 24.3927 5.014 24.8487 4.594C25.3167 4.162 25.8687 3.838 26.5047 3.622C27.1407 3.394 27.8427 3.28 28.6107 3.28C29.3307 3.28 30.0087 3.388 30.6447 3.604C31.2807 3.82 31.8327 4.138 32.3007 4.558C32.7687 4.966 33.1407 5.464 33.4167 6.052C33.6927 6.64 33.8307 7.306 33.8307 8.05V9.31H26.1447C26.2887 10.306 26.6307 11.02 27.1707 11.452C27.7227 11.884 28.4127 12.1 29.2407 12.1ZM28.6107 4.45C28.2627 4.45 27.9387 4.516 27.6387 4.648C27.3387 4.78 27.0747 4.99 26.8467 5.278C26.6307 5.566 26.4507 5.938 26.3067 6.394C26.1747 6.85 26.1027 7.402 26.0907 8.05H31.1307C31.1307 7.426 31.0587 6.886 30.9147 6.43C30.7707 5.974 30.5787 5.602 30.3387 5.314C30.1107 5.014 29.8407 4.798 29.5287 4.666C29.2287 4.522 28.9227 4.45 28.6107 4.45ZM38.5993 13H36.0793V0.399999H38.5993V13ZM56.3272 11.2H56.5072L61.1872 0.399999H65.0572V13H62.4472V2.92H62.2672L57.9472 13H54.8872L50.5672 2.92H50.3872V13H47.7772V0.399999H51.6472L56.3272 11.2ZM72.7902 12.19C73.1742 12.19 73.5342 12.118 73.8702 11.974C74.2062 11.83 74.5002 11.608 74.7522 11.308C75.0042 10.996 75.2022 10.594 75.3462 10.102C75.5022 9.61 75.5802 9.016 75.5802 8.32C75.5802 7.624 75.5022 7.03 75.3462 6.538C75.2022 6.046 75.0042 5.65 74.7522 5.35C74.5002 5.038 74.2062 4.81 73.8702 4.666C73.5342 4.522 73.1742 4.45 72.7902 4.45C72.4062 4.45 72.0462 4.522 71.7102 4.666C71.3742 4.81 71.0802 5.038 70.8282 5.35C70.5762 5.65 70.3722 6.046 70.2162 6.538C70.0722 7.03 70.0002 7.624 70.0002 8.32C70.0002 9.016 70.0722 9.61 70.2162 10.102C70.3722 10.594 70.5762 10.996 70.8282 11.308C71.0802 11.608 71.3742 11.83 71.7102 11.974C72.0462 12.118 72.4062 12.19 72.7902 12.19ZM72.7902 3.28C73.5942 3.28 74.3322 3.394 75.0042 3.622C75.6882 3.838 76.2702 4.162 76.7502 4.594C77.2302 5.014 77.6022 5.542 77.8662 6.178C78.1422 6.802 78.2802 7.516 78.2802 8.32C78.2802 9.136 78.1422 9.856 77.8662 10.48C77.6022 11.104 77.2302 11.632 76.7502 12.064C76.2702 12.484 75.6882 12.802 75.0042 13.018C74.3322 13.246 73.5942 13.36 72.7902 13.36C71.9742 13.36 71.2302 13.246 70.5582 13.018C69.8862 12.802 69.3102 12.484 68.8302 12.064C68.3502 11.632 67.9722 11.104 67.6962 10.48C67.4322 9.856 67.3002 9.136 67.3002 8.32C67.3002 7.516 67.4322 6.802 67.6962 6.178C67.9722 5.542 68.3502 5.014 68.8302 4.594C69.3102 4.162 69.8862 3.838 70.5582 3.622C71.2302 3.394 71.9742 3.28 72.7902 3.28ZM87.6437 4.9H85.4837C84.6677 4.9 84.0437 5.122 83.6117 5.566C83.1797 5.998 82.9637 6.646 82.9637 7.51V13H80.4437V7.51C80.4437 6.286 80.8277 5.338 81.5957 4.666C82.3757 3.982 83.4917 3.64 84.9437 3.64H87.6437V4.9ZM94.1117 12.1C94.6997 12.1 95.2457 11.998 95.7497 11.794C96.2657 11.59 96.7697 11.302 97.2617 10.93L97.9817 12.01C97.7537 12.214 97.4837 12.4 97.1717 12.568C96.8717 12.736 96.5417 12.88 96.1817 13C95.8337 13.108 95.4677 13.192 95.0837 13.252C94.6997 13.324 94.3157 13.36 93.9317 13.36C93.0797 13.36 92.2997 13.246 91.5917 13.018C90.8957 12.802 90.3017 12.484 89.8097 12.064C89.3177 11.632 88.9337 11.104 88.6577 10.48C88.3937 9.856 88.2617 9.136 88.2617 8.32C88.2617 7.516 88.3877 6.802 88.6397 6.178C88.9037 5.542 89.2637 5.014 89.7197 4.594C90.1877 4.162 90.7397 3.838 91.3757 3.622C92.0117 3.394 92.7137 3.28 93.4817 3.28C94.2017 3.28 94.8797 3.388 95.5157 3.604C96.1517 3.82 96.7037 4.138 97.1717 4.558C97.6397 4.966 98.0117 5.464 98.2877 6.052C98.5637 6.64 98.7017 7.306 98.7017 8.05V9.31H91.0157C91.1597 10.306 91.5017 11.02 92.0417 11.452C92.5937 11.884 93.2837 12.1 94.1117 12.1ZM93.4817 4.45C93.1337 4.45 92.8097 4.516 92.5097 4.648C92.2097 4.78 91.9457 4.99 91.7177 5.278C91.5017 5.566 91.3217 5.938 91.1777 6.394C91.0457 6.85 90.9737 7.402 90.9617 8.05H96.0017C96.0017 7.426 95.9297 6.886 95.7857 6.43C95.6417 5.974 95.4497 5.602 95.2097 5.314C94.9817 5.014 94.7117 4.798 94.3997 4.666C94.0997 4.522 93.7937 4.45 93.4817 4.45ZM107.423 0.399999H113.543C114.467 0.399999 115.265 0.483999 115.937 0.651999C116.621 0.807999 117.185 1.036 117.629 1.336C118.073 1.624 118.403 1.972 118.619 2.38C118.835 2.788 118.943 3.238 118.943 3.73C118.943 4.366 118.763 4.918 118.403 5.386C118.043 5.854 117.503 6.202 116.783 6.43C117.683 6.61 118.385 6.964 118.889 7.492C119.405 8.008 119.663 8.674 119.663 9.49C119.663 10.57 119.213 11.428 118.313 12.064C117.425 12.688 116.015 13 114.083 13H107.423V0.399999ZM110.033 7.24V11.65H114.083C114.983 11.65 115.673 11.47 116.153 11.11C116.633 10.75 116.873 10.21 116.873 9.49C116.873 8.722 116.633 8.158 116.153 7.798C115.673 7.426 114.983 7.24 114.083 7.24H110.033ZM113.543 5.89C115.283 5.89 116.153 5.17 116.153 3.73C116.153 3.094 115.931 2.608 115.487 2.272C115.055 1.924 114.407 1.75 113.543 1.75H110.033V5.89H113.543ZM127.04 12.19C127.424 12.19 127.784 12.118 128.12 11.974C128.456 11.83 128.75 11.608 129.002 11.308C129.254 10.996 129.452 10.594 129.596 10.102C129.752 9.61 129.83 9.016 129.83 8.32C129.83 7.624 129.752 7.03 129.596 6.538C129.452 6.046 129.254 5.65 129.002 5.35C128.75 5.038 128.456 4.81 128.12 4.666C127.784 4.522 127.424 4.45 127.04 4.45C126.656 4.45 126.296 4.522 125.96 4.666C125.624 4.81 125.33 5.038 125.078 5.35C124.826 5.65 124.622 6.046 124.466 6.538C124.322 7.03 124.25 7.624 124.25 8.32C124.25 9.016 124.322 9.61 124.466 10.102C124.622 10.594 124.826 10.996 125.078 11.308C125.33 11.608 125.624 11.83 125.96 11.974C126.296 12.118 126.656 12.19 127.04 12.19ZM127.04 3.28C127.844 3.28 128.582 3.394 129.254 3.622C129.938 3.838 130.52 4.162 131 4.594C131.48 5.014 131.852 5.542 132.116 6.178C132.392 6.802 132.53 7.516 132.53 8.32C132.53 9.136 132.392 9.856 132.116 10.48C131.852 11.104 131.48 11.632 131 12.064C130.52 12.484 129.938 12.802 129.254 13.018C128.582 13.246 127.844 13.36 127.04 13.36C126.224 13.36 125.48 13.246 124.808 13.018C124.136 12.802 123.56 12.484 123.08 12.064C122.6 11.632 122.222 11.104 121.946 10.48C121.682 9.856 121.55 9.136 121.55 8.32C121.55 7.516 121.682 6.802 121.946 6.178C122.222 5.542 122.6 5.014 123.08 4.594C123.56 4.162 124.136 3.838 124.808 3.622C125.48 3.394 126.224 3.28 127.04 3.28ZM139.818 8.266L143.778 13H140.898L138.378 9.994L135.858 13H132.978L136.938 8.266L133.068 3.64H135.948L138.378 6.556L140.808 3.64H143.688L139.818 8.266ZM147.821 13H145.301V3.82H147.821V13ZM147.911 1.39C147.911 1.75 147.785 2.068 147.533 2.344C147.293 2.608 146.969 2.74 146.561 2.74C146.153 2.74 145.823 2.608 145.571 2.344C145.331 2.068 145.211 1.75 145.211 1.39C145.211 1.03 145.331 0.718 145.571 0.454C145.823 0.177999 146.153 0.0399995 146.561 0.0399995C146.957 0.0399995 147.281 0.177999 147.533 0.454C147.785 0.718 147.911 1.03 147.911 1.39ZM160.512 13H157.992V7.33C157.992 6.466 157.776 5.848 157.344 5.476C156.912 5.092 156.288 4.9 155.472 4.9H153.132V13H150.612V3.64H155.472C157.188 3.64 158.454 3.952 159.27 4.576C160.098 5.188 160.512 6.106 160.512 7.33V13ZM168.154 4.9C167.29 4.9 166.606 5.17 166.102 5.71C165.61 6.238 165.364 7.048 165.364 8.14C165.364 9.232 165.61 10.048 166.102 10.588C166.606 11.116 167.29 11.38 168.154 11.38H170.404V4.9H168.154ZM172.924 12.82C172.924 13.384 172.816 13.894 172.6 14.35C172.384 14.818 172.06 15.22 171.628 15.556C171.208 15.892 170.674 16.15 170.026 16.33C169.39 16.51 168.646 16.6 167.794 16.6C167.506 16.6 167.194 16.576 166.858 16.528C166.534 16.492 166.204 16.426 165.868 16.33C165.532 16.246 165.202 16.132 164.878 15.988C164.566 15.856 164.278 15.7 164.014 15.52L164.644 14.44C165.052 14.716 165.514 14.932 166.03 15.088C166.546 15.256 167.074 15.34 167.614 15.34C168.514 15.34 169.204 15.136 169.684 14.728C170.164 14.32 170.404 13.684 170.404 12.82V12.64H168.154C167.326 12.64 166.57 12.532 165.886 12.316C165.214 12.1 164.638 11.794 164.158 11.398C163.678 11.002 163.306 10.528 163.042 9.976C162.79 9.424 162.664 8.812 162.664 8.14C162.664 7.468 162.79 6.856 163.042 6.304C163.306 5.752 163.678 5.278 164.158 4.882C164.638 4.486 165.214 4.18 165.886 3.964C166.57 3.748 167.326 3.64 168.154 3.64H172.924V12.82Z" fill="#FCFCFC"/>
</svg>
